<?xml version="1.0" standalone="no"?>
<!DOCTYPE svg PUBLIC "-//W3C//DTD SVG 1.1//EN" "http://www.w3.org/Graphics/SVG/1.1/DTD/svg11.dtd" >
<!--
2013-9-30: Created.
-->
<svg>
<metadata>
Created by iconfont
</metadata>
<defs>

<font id="iconfont" horiz-adv-x="1024" >
  <font-face
    font-family="iconfont"
    font-weight="500"
    font-stretch="normal"
    units-per-em="1024"
    ascent="896"
    descent="-128"
  />
    <missing-glyph />
    
    <glyph glyph-name="meiyuandollar142" unicode="&#58882;" d="M579.2 775.1616c0 10.0128-8.064 18.0864-18.096 18.0864l-98.208 0c-10.0224 0-18.0864-8.0736-18.0864-18.0864l0-0.48c0-10.0128 8.064-18.0864 18.0864-18.0864l98.208 0c10.032 0 18.096 8.064 18.096 18.0864L579.2 775.1616zM719.6768 842.112L304.3328 842.112c-40.4256 0-73.3056-32.8608-73.3056-73.296l0-769.6128c0-40.4352 32.88-73.3056 73.3056-73.3056l415.344 0c40.4448 0 73.296 32.8704 73.296 73.3056L792.9728 768.8063999999999C792.9728 809.2512 760.1216 842.112 719.6768 842.112zM512-46.60799999999995c-21.8496 0-39.696 17.8272-39.696 39.7056 0 21.8592 17.8368 39.7056 39.696 39.7056 21.8784 0 39.7056-17.8368 39.7056-39.7056C551.7152-28.7808 533.8784-46.60799999999995 512-46.60799999999995zM731.8976 72.4896c0-6.7104-5.4912-12.2112-12.2208-12.2112L304.3328 60.27840000000003c-6.7008 0-12.2112 5.5008-12.2112 12.2112L292.1216 695.5104c0 6.72 5.5104 12.2112 12.2112 12.2112l415.344 0c6.7296 0 12.2208-5.5008 12.2208-12.2112L731.8976 72.4896zM464.576 463.2768c0 24.3456 22.8384 41.3472 52.0512 41.3472 43.2384 0 76.3392-30.1824 76.3392-30.1824l27.2256 51.1008c0 0-29.1552 30.6528-85.5936 35.4912l0 44.736L492.8 605.7696000000001l0-45.7248c-53.9904-8.7456-91.4496-47.6352-91.4496-97.7472 0-104.5536 164.3808-98.736 164.3808-157.104 0-28.2144-23.8272-41.7984-50.0928-41.7984-48.6336 0-86.0736 36.4704-86.0736 36.4704l-34.0416-47.1936c0 0 34.5408-38.4 97.2864-45.7056l0-44.736 41.7984 0 0 44.736c59.3472 7.7856 93.8976 50.0832 93.8976 99.696C628.496 415.6224 464.576 405.408 464.576 463.2768z"  horiz-adv-x="1024" />

    
    <glyph glyph-name="huilvzhuanhuan" unicode="&#59067;" d="M957.95804199 313.66938574000005c-0.02810566 2.21193809-0.47586885 4.28369677-1.28795449 6.24356016-0.02810566 0.02792989-0.02810566 0.11207285-0.05603643 0.19603916-0.7560501 1.70796269-1.79192989 3.19178144-3.07970859 4.5076667-0.1681084 0.25207558-0.33586612 0.50397451-0.56001094 0.70001367-1.31588526 1.25984883-2.79970312 2.23986797-4.42369951 2.99574228-0.30793536 0.14000273-0.56001094 0.3360419-0.92398271 0.47604463-1.9598625 0.83984063-4.1716248 1.25984883-6.46735342 1.23191895l-136.76914512-13.35489082c-9.18326602-0.11189707-16.54667227-7.58737529-16.46270508-16.71460488 0.08414209-9.15516035 7.61548096-16.46270508 16.82667774-16.37873877l63.47095136 0.56001094c-0.11207285-0.11207285-0.22396904-0.25207558-0.33604189-0.36397178 1.42778232 0.19603916 2.65987617 0.3360419 4.03162207 0.50397451-45.83236289-48.15619805-105.41151914-90.74074307-175.46207168-122.15423057-208.58334609-93.68062559-430.6057251-53.25180557-495.89653623 90.23676856-65.3189168 143.48857412 50.81572266 335.77714776 259.39906875 429.42984258 4.11576416 1.84779052 8.2592833 3.27574776 12.3471167 5.03957108-1.90382607-0.36397177-3.83575869-0.58794083-5.82355195-0.58794081 17.19064951 0 31.07762051 13.83093545 31.0776205 30.88158222 0 17.02271602-13.88679609 30.88158222-31.0776205 30.88158223-4.591633 0-8.87532979-1.06398545-12.82298555-2.82780966-20.80243916-7.02736435-41.57677177-15.09078428-62.23903242-24.35801661C141.62704209 608.6259875999999 4.49392432 374.00459208999996 85.12741865 196.75076631000002c80.63349434-177.28193144 348.54427266-230.00165683 598.42438506-117.81467227 95.10840703 42.69661787 173.83825107 103.19975683 230.47770059 171.45838038 0.02810566 0 0.02810566 0.02792989 0.02810566 0.02792988 0.08396631-18.39446191-0.08396631-62.37903516-0.11189707-73.91406621 0.58794083-8.67929151 7.72737802-15.51079248 16.57460214-15.39889541 9.23930244 0.08396631 16.57460215 7.55944541 16.49063585 16.71460488l9.57516855 120.67041182 0.50397451 0.70001367-0.44793808-0.02792988L957.95804199 313.66938574000005zM428.85608926 578.83632158c-13.38299648-9.18326602-24.3580166-20.63432988-32.3654001-34.04525713-8.34324961-13.85886533-12.48694365-29.70569971-12.45901377-46.28030185 0-17.86255752 3.77972227-34.21336553 12.23504473-47.96015888 7.86738076-12.87902198 18.84257666-23.65817872 32.1974666-32.00142833 12.90695185-8.11928057 27.77376709-14.50284258 44.40440567-19.31844463 11.87107207-3.47178691 24.41405303-6.4675292 37.293075-9.23930244l0-116.77879248c-5.93562393 1.14795175-14.97888721 2.71573682-20.1863918 4.75956562-10.30328789 4.08765849-18.92654297 9.21119589-26.03787364 15.37078976-7.08340078 6.15941807-12.26297461 12.9350584-15.90286992 20.6064-3.5836831 7.64341172-5.37561299 15.6787251-5.40354375 24.7780248 0 4.28369677-1.76382334 8.51135801-4.81560205 11.53503105-3.05177872 3.05177872-7.27943994 4.78767217-11.61899737 4.78767217l-41.21279999 0c-4.64766943 0-9.09929971-1.9598625-12.20711397-5.40354375-3.10781513-3.38764482-4.61956289-8.00738349-4.11558837-12.62694638 0.4200082-4.00369131 0.83984063-7.95134707 1.25984883-11.98314493 0.47604463-4.53559658 1.20398818-9.18326602 2.09986523-13.88679609l0.28000547-1.14795176c8.37135527-31.38555674 26.96185635-56.66755606 54.00767988-72.65421738 22.65022881-13.49489355 53.3918083-21.19434083 84.49735956-24.33008585l1e-8-14.55887899c0-4.28352187 1.73589346-8.53928877 4.81560205-11.56313672 3.07970859-3.02367217 7.30736982-4.78767217 11.64710303-4.78767218l29.14568876 0c4.31162754 0 8.59532432 1.73589346 11.61899737 4.78767218 3.05177872 3.02367217 4.81560205 7.27943994 4.81560205 11.56313672l0 14.39094638c12.43108301 1.14795175 24.89009677 2.9678124 37.20910781 6.24338438 17.86255752 4.67559932 34.12922344 11.45106386 48.52016983 20.41036083 14.61473965 9.01533252 26.84978437 20.35432442 36.20115879 33.73732178 9.93931612 14.1388708 15.06285352 30.90951211 15.00681797 48.52016983-0.02792989 20.77433261-3.5836831 39.08482823-11.78710577 54.39958154-7.81134434 14.53077334-19.12240635 26.65392099-33.09334365 35.66907773-13.57903565 8.76325781-29.50966055 15.51079248-47.70825908 20.5224337-13.55092998 3.72368584-28.58567783 7.19547276-44.3764749 10.49915126l0 101.79990528c3.72368584-0.61587158 7.36340625-1.31588526 10.77915674-2.35176505 8.45532158-2.5478042 15.42682617-5.93544815 21.13830526-10.07914305l-0.02792987 0.02792987c5.73958477-4.14369404 9.99517676-8.79136347 13.32696005-14.30680429 2.91177598-5.01164121 4.31162754-10.13517949 4.33973321-16.43477519 0-4.31162754 1.73589346-8.51135801 4.81560205-11.56313672 3.07970859-3.05177872 7.30736982-4.78767217 11.61899736-4.78767218l41.2128 0c4.53559658 0 8.87532979 1.87589619 12.0110748 5.15164395 3.02367217 3.27574776 4.70370498 7.69944815 4.42369951 12.20693818-0.98001914 16.12666406-5.23561026 31.24555401-12.93505839 44.57251407-7.58737529 13.13092178-18.08652656 24.30215596-30.937442 33.06541377-12.76694912 8.70722138-27.49376162 15.09078428-43.81646396 19.29051474-11.36709756 2.93970586-23.46213955 4.45163028-35.89322256 5.31957656l0 15.09078428c0 4.31162754-1.73589346 8.51135801-4.81560205 11.56313672-3.02367217 3.02367217-7.30736982 4.75956563-11.61917315 4.75956562l-29.14568876 0c-4.3397332 0-8.56739443-1.73589346-11.64710303-4.75956562-3.05177872-3.05177872-4.81560205-7.25150917-4.81560205-11.56313672l0-14.86681523c-12.62694638-0.81191074-25.00199385-2.3798707-36.73306406-5.57165215C457.30176435 594.79505215 442.12701377 587.99165683 428.85608926 578.83632158zM572.84863877 378.34432529000003c5.99148457-1.23191895 11.67503379-2.57590987 17.13461308-4.00369131 10.35914854-2.65970039 19.03843916-6.21545362 26.14994649-10.44311484 6.57942627-3.94765576 11.33916768-8.65136074 15.06285351-14.55887901l-0.02792988 0.02792989c3.10781513-5.01164121 5.15164395-12.03900557 5.17957383-22.1462543-0.02792989-8.09134981-1.79175411-14.7268125-5.43164942-21.13830527-3.89161934-6.69149825-9.12722959-12.43108301-16.21063036-17.52669141-7.33547549-5.23561026-15.95873057-9.49120137-26.20598204-12.71091357-5.01164121-1.56795997-10.19121504-2.74384248-15.65079521-3.52764756L572.84863877 378.34432529000003zM497.89869278 542.2432602599999c3.94765576 1.14795175 8.03531338 1.9598625 12.26297461 2.57573407l0-89.844866c-4.14369404 1.09191622-8.31531885 2.18383154-12.23504473 3.33178417-9.18326602 2.6317705-16.85460762 5.99148457-23.21006397 9.91120958l0 0c-5.79544541 3.5836831-9.88327969 7.69927237-12.9350584 12.73901923-2.51969766 4.1716248-4.31162754 10.2191458-4.31162753 19.03843916 0.02792989 6.71942901 1.51192441 12.15107754 4.47956015 17.33065224 3.19178144 5.51561572 7.55944541 10.24725146 13.63489629 14.53077335C481.74392305 536.22367002 489.1073293 539.6954560500001 497.89869278 542.2432602599999z"  horiz-adv-x="1024" />

    
    <glyph glyph-name="liushuidingdan" unicode="&#58896;" d="M374.17431641 722.43867188L568.109375 722.43867188c20.43193359 0 37.67080078 19.26035156 37.67080078 43.09716796 0 23.78232422-17.18613281 42.98994141-38.78789062 42.98994141L374.17431641 808.52578125c-21.49541016 0-38.68154297-19.20761719-38.68154297-42.98994141 0.00087891-23.78408203 17.23974609-43.09716797 38.68154297-43.09716797zM779.55048828 250.87382811999998c22.55888672 0 44.0015625-4.62919922 63.47460938-13.14228515L843.02509766 663.59326172c0 58.42001953-31.33828125 98.85585938-96.99433594 98.85585937l-87.41777344 0c0.85078125-4.68193359 1.38339844-9.47021484 1.38339844-14.31210937 0.05273438-36.17929688-26.12373047-71.775-57.19658203-71.775L334.32294922 676.36201172c-32.72167968 0-58.89990234 35.59570313-58.89990234 71.775 0.05361327 4.78916016 0.58623047 9.63017578 1.43701171 14.31210937L188.37880859 762.4491210900001c-71.08330078 0-88.53486328-40.43671875-88.53486328-98.85585937l0-578.18935547c0-62.73017577 25.00664062-97.84599609 93.9084961-97.84599609l462.94541015 0c-23.14423828 27.82705078-37.08457031 63.74091797-37.08457031 102.84697265 0 88.64121094 71.56230469 160.46894531 159.93720703 160.46894532zM286.43750001 542.8675781300001l378.93251951 0c13.99306641 0 25.8046875-13.08779296 26.86904298-28.19882813 0-14.10029297-14.68476563-29.21044922-28.67783203-29.21044922L283.56435547 485.45830078c-14.04580078 0-22.93154297 15.11015625-22.93154297 29.21044922 0 14.09941405 11.81162109 28.19882812 25.80468751 28.19882812zM457.06835938 161.32822266000005L283.56435547 161.32822266000005c-14.04580078 0-22.93154297 15.11015625-22.93154296 29.20957031 0 14.10029297 11.81162109 28.14609375 25.80468749 28.14609375l172.44052734 0c14.04667969 0 25.85830078-12.98320313 26.92265625-28.14609374 0-14.09941405-14.73925781-29.20957032-28.73232421-29.20957032z m-175.10009766 159.56542968c-13.99306641 0-27.98701172 17.23798828-27.98701172 31.33828124 0 14.04667969 11.81162109 26.01738281 25.85917969 26.01738283l378.93164062 0c13.99306641 0 25.8046875-10.90634766 26.92265624-26.01738282 0-14.10029297-9.68378907-31.33828125-23.67685546-31.33828126L281.96826172 320.89365234zM794.12890625 211.34150392000004c-69.85898438 0-126.52470703-56.87753906-126.52470703-127.05556642 0-70.23251953 56.61123047-127.10917969 126.52470703-127.10917969 69.91259766 0 126.5765625 56.82392577 126.5765625 127.10917969 0 70.17890624-56.71757813 127.05556641-126.5765625 127.05556642z m83.53388672-93.85488282S786.62744141 27.62109375 786.1484375 27.14208984000004c-10.37548828-10.26914062-15.80273438-8.61943359-20.37744141-3.93750001l-54.48339843 54.64248048c-4.57470703 4.62919922-4.30927734 12.39697266 0.63896484 17.34521485 4.89462891 5.00185547 12.66328125 5.26816406 17.29160156 0.58623047l44.53330078-44.69326172 86.24707032 84.5446289c5.00097656 4.89375 12.98232422 4.78828125 17.87695312-0.21269531 4.89375-5.05546875 4.78828125-13.08867187-0.21269531-17.9305664z"  horiz-adv-x="1024" />

    
    <glyph glyph-name="zhuanzhang-" unicode="&#58883;" d="M584.430455 18.68535499999996C397.364057 18.68535499999996 244.475591 164.51930200000004 233.042404 348.66658700000005H89.64105c11.433187-223.676921 196.55351-401.621095 423.149543-401.621095 203.972918 0 374.132795 144.131132 414.513837 336.062716h-1.946074c-38.921487-152.037059-176.849507-264.422853-340.927901-264.422853zM90.370828 338.20643800000005l-2.797482 48.408599c-0.364889 7.297779 6.203112 12.892743 13.257632 11.433187l207.500178-54.854971c8.878964-2.310963 10.703409-14.109039 2.919111-18.974225l-54.125193-16.541632c-10.581779-3.162371-16.906521-13.987409-14.473928-24.690818l10.46015-48.4086C215.527735 202.589381 104.844756 291.257394 90.370828 338.20643800000005zM655.948687 545.7066159999999c0-7.419408-3.284-15.933484-9.730371-25.420596-6.81126-10.33852-13.86578-15.446965-21.041929-15.446965-2.067704 0-17.757928 5.473334-47.070674 16.420002s-52.787267 16.420002-70.423565 16.420002c-38.313339 0-57.530823-14.595558-57.530824-43.786673 0-20.190521 17.028151-37.461931 51.206082-51.6926 59.598527-25.177337 91.222235-39.043117 94.992754-41.35408 34.177931-21.528448 51.206081-50.962822 51.206082-88.303124 0-29.799264-8.514075-54.368452-25.663856-73.707566-17.028151-19.339114-40.745932-30.529041-71.153343-33.691412 0-3.162371 0.12163-7.784297 0.486518-13.98741 0.243259-6.203112 0.486519-10.703409 0.486519-13.62252 0-22.501485-10.33852-33.691412-31.13719-33.691412-14.838817 0-24.934078 2.797482-30.285782 8.270816-4.135408 4.257038-6.324742 11.798076-6.324742 22.623114 0 2.554223 0.12163 7.176149 0.486519 13.62252 0.243259 6.568001 0.486519 11.676446 0.486518 15.568595-19.339114 1.459556-40.867561 6.324742-64.585342 14.352299-30.772301 10.703409-46.097636 22.501485-46.097636 35.394227 0 7.784297 2.797482 16.298373 8.270816 25.785485 6.203112 10.46015 13.136002 15.811854 20.43378 15.811854 2.432593 0 18.122817-5.230075 46.949044-15.690224 28.826226-10.46015 51.935859-15.690224 69.450529-15.690225 37.340302 0 56.071267 14.595558 56.071267 43.908303 0 21.528448-17.028151 39.529635-50.962822 53.881934-31.502079 13.257632-63.125787 26.515263-94.749495 39.651265-33.934672 20.55541-50.962822 49.138377-50.962823 85.748901 0 31.258819 9.730372 56.679416 29.312745 76.383418 18.609336 18.609336 44.151562 30.164153 76.869937 34.78608 0 3.284-0.12163 8.149186-0.486518 14.352298-0.243259 6.203112-0.486519 10.825039-0.486519 13.500891 0 22.866374 10.825039 34.177931 32.596746 34.177931 14.109039 0 23.717781-3.162371 28.826226-9.365483 4.135408-4.986816 6.324742-13.136002 6.324742-24.569189 0-2.554223-0.12163-6.93289-0.486519-13.136002-0.243259-6.203112-0.486519-10.946668-0.486518-14.230669 20.67704-3.162371 41.23245-8.635705 61.78786-16.663261 28.947856-11.311557 43.421784-23.474522 43.421784-36.610524zM439.569545 749.314645c187.066397 0 339.954864-145.833947 351.388051-329.981232h143.401354C922.804134 643.131963 737.80544 820.954508 511.209407 820.954508 307.236489 820.954508 137.076612 676.823376 96.69557 484.891792h1.946074c38.921487 152.037059 176.727877 264.422853 340.927901 264.422853zM933.629172 429.793562l2.797482-48.408599c0.364889-7.297779-6.203112-12.892743-13.257632-11.433187l-207.500178 54.854971c-8.878964 2.310963-10.703409 14.109039-2.919111 18.974225l54.125193 16.541632c10.581779 3.162371 16.906521 13.987409 14.473928 24.690818l-10.46015 48.4086c37.583561 31.988597 148.26654-56.557786 162.740468-103.62846z"  horiz-adv-x="1024" />

    
    <glyph glyph-name="zhuanzhang" unicode="&#58935;" d="M830.35715056 702.03895251C654.55272709 877.84337598 369.68592145 877.76382647 193.96104749 702.03895251s-175.72487396-460.67122911 0-636.39610307 460.67122911-175.72487396 636.39610307 0S1006.08202452 526.31407855 830.35715056 702.03895251z m-141.43903391-576.73396841L426.08652609 184.33072266c-14.31891232 0.31819805-25.45584412 18.45548699-14.95530843 28.95602269l45.6614204 45.6614204c7.00035713 7.00035713 6.7617086 21.39881897-0.55684659 28.71737415L222.20112457 521.7002067999999c-3.81837662 10.81873375-3.97747564 17.97818991 3.102431 25.05809656l31.66070613 31.66070613c7.00035713 7.00035713 21.39881897 6.7617086 28.71737415-0.55684659l420.57827461-420.57827462c3.73882711-10.89828327 0.55684659-28.71737415-17.34179381-31.97890418z m78.51536922 63.87825885c-7.00035713-7.00035713-21.39881897-6.7617086-28.71737415 0.55684659L314.47855951 613.97764175c-7.47765421 14.47801134 2.94333198 32.21755272 17.2622443 31.89935466l262.83159056-59.02573856c14.31891232-0.31819805 25.45584412-18.45548699 14.95530843-28.95602269l-49.16159897-49.16159896c-7.00035713-7.00035713-6.7617086-21.39881897 0.55684659-28.71737415l234.03466691-234.0346669c7.31855519-7.31855519 7.63675324-21.6374675 0.55684659-28.71737415l-28.08097805-28.08097805z"  horiz-adv-x="1024" />

    
    <glyph glyph-name="licai" unicode="&#59369;" d="M540.50816 720.3116373299999c-80.45636267 0-153.52900267-22.65361067-153.52900267-22.65361067s-81.26464 82.46613333-187.826176 48.47479467c30.45239467-30.58346667 5.08996267-65.31754667 25.77749334-115.58365867a498.35758933 498.35758933 0 0 1-61.71306667-66.86856533c-33.72919467-44.52078933-9.17504-112.67822933-34.55931733-148.373504-25.362432-35.67342933-53.17154133-10.59498667-70.07982934-32.702464-8.08277333-10.59498667-9.67748267-99.26519467 14.98589867-132.79778134 40.34833067-36.45986133 64.37819733 3.473408 108.74606933-45.54752a387.40514133 387.40514133 0 0 1 79.429632-75.58485333c7.86432-7.86432-22.45700267-24.969216-8.62890666-72.52650667 8.73813333-17.84763733 83.755008-20.31616 106.51784533-10.20177066 13.52226133 11.25034667 0.065536 23.76772267 9.306112 26.2144 5.46133333-2.00977067 11.03189333-3.997696 16.66798933-5.81085867 9.45902933-7.29634133-11.64356267-54.263808 25.38427734-53.30261333 11.64356267-2.25006933 39.845888-1.441792 69.03125333-0.393216 15.925248 4.89335467 11.272192 31.08590933 15.94709333 30.64900266a529.31242667 529.31242667 0 0 1 51.44576-2.490368c48.93354667 0 77.96599467 13.47857067 120.04010667 25.66826667 26.17070933 4.08507733-10.70421333-33.57627733 11.55618133-38.55701333 7.82062933 3.60448 84.97834667-11.14112 100.401152 7.75509333 25.90856533 22.06378667 0.02184533 90.59259733 21.73610667 100.92544C901.04354133 201.00437333000002 927.06133333 269.86086399 927.06133333 382.10218666000003c0 186.7776-157.85437867 338.231296-386.55317333 338.231296zM249.724928 476.77986133c-14.96405333 0-27.08821333 12.189696-27.08821333 27.21928533s12.12416 27.19744 27.08821333 27.19744c14.942208 0 27.04452267-12.16785067 27.04452267-27.19744 0-15.02958933-12.10231467-27.21928533-27.04452267-27.21928533z m461.72296533 51.99189333c-90.177536 36.32878933-175.898624 27.28482133-175.898624 27.28482133a27.11005867 27.11005867 0 0 0-27.066368 27.17559467c0 15.02958933 12.12416 27.19744 27.08821334 27.19744 96.97143467 4.54382933 175.87677867-27.19744 175.87677866-27.19744 20.447232-5.92008533 26.2144-12.189696 26.2144-27.17559467 0-15.02958933-11.25034667-27.262976-26.2144-27.262976z"  horiz-adv-x="1024" />

    
    <glyph glyph-name="chong" unicode="&#58936;" d="M162.0000002 834h699.9999996a100.0000002 100.0000002 0 0 0 100.0000002-100.0000002v-699.9999996a100.0000002 100.0000002 0 0 0-100.0000002-100.0000002H162.0000002a100.0000002 100.0000002 0 0 0-100.0000002 100.0000002V733.9999998000001a100.0000002 100.0000002 0 0 0 100.0000002 100.0000002z m349.39999951-157.3999998l-46.19999971-7.20000001c11.99999971-20.40000029 22.79999971-42.59999971 32.4-66.6H264.79999971v-40.20000029H437.00000029c-48.6-72.60000029-88.2-117-118.20000058-133.80000029a54.69999961 54.69999961 0 0 0-9.59999942-3.6l10.19999971-38.99999971c124.2 6.59999971 239.4 15.59999971 345.6 27 15.59999971-22.20000029 29.40000029-43.80000029 42.00000029-65.40000029l36 25.2c-27.60000029 45.60000029-67.20000029 98.39999971-118.8 159.60000058l-33.60000058-21.00000058c17.39999971-21.6 33.59999971-42.59999971 49.20000029-63.59999942a4819.6000002 4819.6000002 0 0 0-263.40000029-22.20000029c29.99999971 27 65.40000029 72.60000029 105.60000058 136.8h277.2v40.2000003H540.8a755.84999971 755.84999971 0 0 1-29.40000029 73.79999999zM408.20000029 363.99999961000003c-3.6-61.2-16.80000029-105.59999971-39.6-133.2-23.4-27.60000029-62.39999971-51.59999971-117.60000029-72l27-34.2c60.59999971 24.59999971 103.79999971 54 130.20000029 87.60000059 24.00000029 31.79999971 37.8 82.19999971 41.99999942 151.79999941h-41.99999942z m292.79999971-230.4c21.6 0.60000029 37.8 6.00000029 49.79999971 16.2 11.99999971 12.6 20.99999971 49.20000029 26.40000058 109.8l-39.6 12.00000058c-2.99999971-50.4-9.60000029-79.80000029-19.20000058-88.19999999a45.8499999 45.8499999 0 0 0-28.8-9h-70.2c-20.99999971 0-31.20000029 9.60000029-31.19999942 27.59999941V371.7999999h-42.60000058v-177.00000029c0-40.79999971 20.40000029-61.2 61.80000029-61.2h93.6z"  horiz-adv-x="1024" />

    
    <glyph glyph-name="shenghuojiaofei" unicode="&#59020;" d="M512 834S127.33964844 525.11982422 127.33964844 314.78964843999995 299.51035156-66 512-66c212.48964844 0 384.66035156 170.46035156 384.66035156 380.78964844S512 834 512 834z m-33.48017578-730.16982422L512 273.66035156H344.68964844l217.44052734 271.70947266-33.38964844-169.83017578h167.21982422L478.51982422 103.83105468999997z"  horiz-adv-x="1024" />

    
    <glyph glyph-name="tixian" unicode="&#58881;" d="M935.936 581.12c0 21.504-16.896 38.4-38.4 38.4l-757.76-0.512c-21.504 0-38.4-16.896-38.4-38.4v-568.32c0-21.504 16.896-38.4 38.4-38.4l757.76 0.512c21.504 0 38.4 16.896 38.4 38.4v145.408H732.16c-76.8 0-139.264 62.464-139.264 139.264S655.36 436.736 732.16 436.736h203.776V581.12zM882.688 654.848l-47.616 165.888c-5.12 16.896-22.528 26.112-38.912 22.016L210.944 654.848h671.744zM739.328 405.504c-59.392 0-107.52-48.128-107.52-107.52s48.128-107.52 107.52-107.52h196.608v215.04h-196.608z m-6.656-146.432c-21.504 0-38.912 17.408-38.912 38.912s17.408 38.912 38.912 38.912 38.912-17.408 38.912-38.912-17.408-38.912-38.912-38.912z"  horiz-adv-x="1024" />

    
    <glyph glyph-name="shoukuanma01" unicode="&#58894;" d="M938.16061895 363.58980088L98.26596758 363.58980088c-13.62970107 0-24.67606465 11.04636357-24.67606465 24.67759131 0 13.62359443 11.04636357 24.67606465 24.67606465 24.67606465l839.89465136-1e-8c13.62359443 0 24.67606465-11.05247109 24.67606465-24.67606464C962.83668359 374.63616445 951.7842125 363.58980088 938.16061895 363.58980088L938.16061895 363.58980088zM520.29965937 27.18794853999998c-13.62817442 0-24.67606465 11.05094443-24.67606465 24.67453799L495.62359385 263.04727998c0 13.62359443 11.04636357 24.67301133 24.67606464 24.67301133 13.63122773 0 24.67759131-11.0494169 24.67759132-24.67301133l-1e-8-211.18479346C544.97725068 38.23889297000005 533.93088711 27.18794853999998 520.29965937 27.18794853999998L520.29965937 27.18794853999998zM667.66593711-61.18448760000001c-13.62817442 0-24.67759131 11.05094443-24.67759131 24.67301133L642.9883458 189.35650693000002c0 13.62970107 11.0494169 24.67606465 24.67759131 24.67606465s24.67301133-11.04636357 24.67301133-24.67606465l0-225.86950985C692.3404751-50.13354403999995 681.29563818-61.18448760000001 667.66593711-61.18448760000001L667.66593711-61.18448760000001zM790.47066026-61.18448760000001c-13.62359443 0-24.67759131 11.05094443-24.67759131 24.67301133L765.79306807 189.35650693000002c0 13.62970107 11.05399776 24.67606465 24.67759131 24.67606465 13.62817442 0 24.67301133-11.04636357 24.67301132-24.67606465l0-225.86950985C815.14367158-50.13354403999995 804.09730801-61.18448760000001 790.47066026-61.18448760000001L790.47066026-61.18448760000001zM913.2723292-61.18448760000001c-13.62359443 0-24.67453799 11.05094443-24.67453799 24.67301133L888.59779122 263.04727998c0 13.62359443 11.05094443 24.67301133 24.67453798 24.67301133 13.62970107 0 24.67606465-11.0494169 24.67606465-24.67301133l0-299.55875625C937.94839472-50.13354403999995 926.90203027-61.18448760000001 913.2723292-61.18448760000001L913.2723292-61.18448760000001zM520.29965937 479.16362168c-13.62817442 0-24.67606465 11.04483691-24.67606465 24.67606465L495.62359385 803.38775508c0 13.62970107 11.04789023 24.67453799 24.67606464 24.67453799 13.63122773 0 24.67759131-11.04483691 24.67759132-24.67453799l-1e-8-299.54806875C544.97725068 490.20998526 533.93088711 479.16362168 520.29965937 479.16362168L520.29965937 479.16362168zM886.62669893 776.41691719c13.56710273 0 24.55850127-10.99292607 24.55850127-24.56002881l0-196.492442c0-13.56252187-10.99139941-24.56002881-24.55850127-24.5600288L690.13883692 530.8044175800001c-13.56252187 0-24.56002881 10.99903271-24.56002882 24.5600288L665.5788081 751.85688838c0 13.56710273 10.99750605 24.56002881 24.56002882 24.56002881L886.62669893 776.41691719 886.62669893 776.41691719zM346.28316963 776.41691719c13.57015605 0 24.56766211-10.99292607 24.56766211-24.56002881l0-196.492442c0-13.56252187-10.99903271-24.56002881-24.56766211-24.5600288L149.8029418 530.8044175800001c-13.57015605 0-24.56613545 10.99903271-24.56613545 24.5600288L125.23680635 751.85688838c0 13.56710273 10.99903271 24.56002881 24.56613545 24.56002881L346.28316963 776.41691719 346.28316963 776.41691719zM346.28316963 236.07644122c13.57015605 0 24.56766211-10.9959794 24.56766211-24.55850128l0-196.49549619c0-13.56404942-10.99903271-24.55850127-24.56766211-24.55850127L149.8029418-9.536057519999986c-13.57015605 0-24.56613545 10.99445273-24.56613545 24.55850127L125.23680635 211.51793994000002c0 13.56252187 10.99903271 24.55850127 24.56613545 24.55850127L346.28316963 236.07644122 346.28316963 236.07644122zM886.62669893 825.77057315L690.13883692 825.77057315c-40.75321904 0-73.9121581-33.15588575-73.91215811-73.91215812l0-196.49244198c0-40.75321904 33.15893906-73.9121581 73.91215811-73.91215811l196.48786201 0c40.75169239 0 73.9121581 33.15893906 73.9121581 73.91215811L960.53885703 751.85688838C960.53885703 792.61316074 927.37839043 825.77057315 886.62669893 825.77057315L886.62669893 825.77057315zM346.28316963 825.77057315L149.8029418 825.77057315c-40.76085322 0-73.91826562-33.15588575-73.91826563-73.91215812l0-196.49244198c0-40.75321904 33.1574124-73.9121581 73.91826563-73.91215811l196.48022783 0c40.76085322 0 73.91979229 33.15893906 73.91979229 73.91215811L420.20296191 751.85688838C420.19532773 792.61316074 387.04402285 825.77057315 346.28316963 825.77057315L346.28316963 825.77057315zM346.28316963 285.42704472L149.8029418 285.42704472c-40.76085322 0-73.91826562-33.15588575-73.91826563-73.90910478l0-196.49549619c0-40.75169239 33.1574124-73.90910479 73.91826563-73.90910479l196.48022783 0c40.76085322 0 73.91979229 33.1574124 73.91979229 73.90910479L420.20296191 211.51793994000002C420.19532773 252.27115898 387.04402285 285.42704472 346.28316963 285.42704472L346.28316963 285.42704472z"  horiz-adv-x="1035" />

    
    <glyph glyph-name="saoma" unicode="&#59310;" d="M955.7505344 349.9641408L68.2494656 349.9641408c-18.89861653 0-34.1276 15.2289824-34.1276 34.1276S49.350848 418.2193408 68.2494656 418.2193408l887.50106987 0c18.89861653 0 34.1276-15.2289824 34.1276-34.1276S974.649152 349.9641408 955.7505344 349.9641408zM853.36773653-59.75053439999999L648.41865707-59.75053439999999c-18.89861653 0-34.1276 15.2289824-34.1276 34.1276s15.2289824 34.1276 34.1276 34.1276l204.7655968 0c18.89861653 0 34.1276 15.2289824 34.1276 34.1276l0 170.63799787c0 18.89861653 15.2289824 34.1276 34.1276 34.1276s34.1276-15.2289824 34.1276-34.1276l0-170.63799787C955.7505344-13.696624000000043 909.696624-59.75053439999999 853.36773653-59.75053439999999zM341.27026133-59.75053439999999l-170.63799786 0c-56.51236907 0-102.38279893 45.87042987-102.38279894 102.38279893l0 170.63799787c0 18.89861653 15.2289824 34.1276 34.1276 34.1276S136.50466453 232.16887893 136.50466453 213.27026133000004l0-170.63799786c0-18.89861653 15.412464-34.1276 34.1276-34.1276l170.63799787 0c18.89861653 0 34.1276-15.2289824 34.1276-34.1276C375.39786133-44.52155200000004 360.16887893-59.75053439999999 341.27026133-59.75053439999999zM102.37706453 520.6021386699999c-18.89861653 0-34.1276 15.2289824-34.1276 34.1276l0 170.63799786c0 56.51236907 45.87042987 102.38279893 102.38279894 102.38279894l170.63799786 0c18.89861653 0 34.1276-15.2289824 34.1276-34.1276S360.16887893 759.49533547 341.27026133 759.49533547l-170.63799786 0c-18.71513493 0-34.1276-15.412464-34.1276-34.1276l0-170.63799787C136.50466453 535.83112107 121.27568213 520.6021386699999 102.37706453 520.6021386699999zM921.62293547 520.6021386699999c-18.89861653 0-34.1276 15.2289824-34.1276 34.1276l0 170.63799786c0 18.71513493-15.2289824 34.1276-34.1276 34.1276L648.41865707 759.49533547c-18.89861653 0-34.1276 15.2289824-34.1276 34.1276s15.2289824 34.1276 34.1276 34.1276l204.7655968 0c56.51236907 0 102.38279893-45.87042987 102.38279893-102.38279894l0-170.63799786C955.7505344 535.83112107 940.521552 520.6021386699999 921.62293547 520.6021386699999z"  horiz-adv-x="1024" />

    
    <glyph glyph-name="fukuanma" unicode="&#58895;" d="M221.43359375 568.7109375l65.8828125 0 0-430.453125-65.8828125 0 0 430.453125ZM562.46679688 568.7109375l65.88281249 0 0-430.453125-65.8828125 0 0 430.453125ZM391.95898438 568.7109375l65.8828125 0 0-430.453125-65.8828125 0 0 430.453125ZM732.97460938 568.7109375l65.88281249 0 0-430.453125-65.8828125 0 0 430.453125ZM813.41210938 818.61914063H210.58789062C128.61582031 818.52246094 62.19335937 752.09121094 62.10546875 670.11914063v-582.78515625c0.08789063-81.97734375 66.52265625-148.41210938 148.5-148.5h602.80664063c81.97734375 0.08789063 148.41210938 66.52265625 148.5 148.5V670.11914063c-0.08789063 81.97734375-66.52265625 148.41210938-148.5 148.49999999z m77.69531249-731.25c-0.04921875-42.890625-34.8046875-77.64609375-77.6953125-77.6953125H210.58789062c-42.890625 0.04921875-77.64609375 34.8046875-77.69531249 77.6953125V670.11914063c0.01933594 42.90996094 34.78535156 77.69882812 77.6953125 77.74804687h602.82421875c42.890625-0.04921875 77.64609375-34.8046875 77.6953125-77.6953125v-582.80273438z"  horiz-adv-x="1024" />

    
    <glyph glyph-name="lingdang" unicode="&#59009;" d="M642.1 56c0-67.1-57.1-119.3-128.4-119.3-71.3 0-128.4 52.2-128.4 119.3h256.8m-42.8 696.2c0 44.8-37.1 79.6-85.6 79.6-48.5 0-85.6-34.8-85.6-79.6v-12.4c-117-37.3-214-156.6-214-295.9v-109.4s0-156.6-42.8-159.1c-25.7 0-42.8-17.4-42.8-39.8s20-39.8 42.8-39.8h684.8c22.8 0 42.8 17.4 42.8 39.8s-20 39.8-42.8 39.8c-42.8 0-42.8 159.1-42.8 159.1V443.9c0 139.2-91.3 256.1-214 295.9v12.4"  horiz-adv-x="1024" />

    
    <glyph glyph-name="fanhui" unicode="&#58897;" d="M736-64c-9 0-18.1 3.2-25 9.6L263 360.8c-13.8 12.8-13.8 33.6 0 46.4L711 822.4c13.8 12.8 36.2 12.8 50 0 13.8-12.8 13.8-33.6 0-46.4L338 384l423-392c13.8-12.8 13.8-33.6 0-46.4-6.9-6.4-16-9.6-25-9.6z"  horiz-adv-x="1024" />

    
    <glyph glyph-name="kongjianshu" unicode="&#58954;" d="M113.92307685 107.07692314999997a121.15384629 121.15384629 0 0 1 121.1538463-121.1538463h380.76923057a121.15384629 121.15384629 0 0 1 121.15384628 121.1538463v111.35769257l67.17115372-20.64807686c8.96538427-2.75192315 18.38076943-4.17115372 28.0211537-4.17115459a95.19230742 95.19230742 0 1 1-28.0211537 186.21346201L737 359.18076943000005V487.84615372a121.15384629 121.15384629 0 0 1-121.15384629 121.15384628h-98.87884629l10.86923144 61.02692315a95.19230742 95.19230742 0 1 1-187.425 0L351.24615371 609H235.07692315a121.15384629 121.15384629 0 0 1-121.1538463-121.15384629v-35.96538428c5.85 0.9 11.59615372 1.35 17.30769258 1.35a155.76923057 155.76923057 0 0 0 0-311.53846201c-5.71153886 0-11.45769258 0.45-17.30769258 1.35V107.07692314999997z m675 41.08846112c0-27.39807685-0.15576943-45.24230742-0.45-53.56730742C782.06923057 4.840384279999967 707.23076943-66 615.84615372-66H235.07692315C139.48653886-66 62 11.486538859999996 62 107.07692314999997v83.56153798a17.30769258 17.30769258 0 0 0 24.85384629 15.57692314C104.19615371 197.82115371999998 118.99423057 193.61538427000005 131.23076943 193.61538427000005a103.84615372 103.84615372 0 1 1 0 207.69230831c-12.23653886 0-27.03461572-4.20576943-44.37692315-12.6a17.30769258 17.30769258 0 0 0-24.85384628 15.57692315V487.84615372c0 95.59038428 46.71346113 178.66730742 225 173.07692313 0.57115372 8.56730742 0 17.23846113 0 25.96153887C287 796.80576943 363.18846113 834 434.11538427 834S581.23076943 796.80576943 581.23076943 686.88461573c0-8.96538427-0.58846114-17.86153887-1.78269258-26.6538463C719.64038428 659.83269258 788.92307685 578.19230742 788.92307685 487.84615372v-58.39615372l51.92307687 6.23076943a147.11538427 147.11538427 0 0 0 0-293.7461537l-51.92307687 6.23076854z"  horiz-adv-x="1043" />

    
    <glyph glyph-name="yemian" unicode="&#59032;" d="M896.69726563 557.49609375c0 33.57421875-12.39257813 62.9296875-35.85937501 86.74804688-50.71289063 51.41601563-101.77734375 102.48046875-153.19335937 153.19335937-23.11523438 22.76367188-51.76757813 35.5078125-84.28710938 35.59570313C474.11914062 833.56054688 324.79296875 833.296875 175.46679687 833.20898438c-6.15234375 0-12.74414063-1.0546875-18.54492187-3.33984376-19.86328125-7.734375-30.41015625-24.69726563-30.41015625-47.28515625v-398.67187499c0-133.06640625 0-266.1328125-0.08789062-399.28710938 0-29.26757813 20.56640625-50.00976563 49.74609375-50.00976563h670.51757812c29.61914063 0 50.09765625 20.65429689 50.09765625 50.18554688 0 190.8984375 0.17578125 381.796875-0.08789063 572.6953125zM640.3203125 764.91796875c8.4375-2.63671875 15.99609375-6.328125 22.14843749-12.48046875l153.45703126-153.45703125c6.15234375-6.15234375 9.84375001-13.7109375 12.56835938-22.23632813H640.3203125V764.91796875z m194.15039063-768.25195313H189.88085937V770.27929687h386.54296876c0.08789063-1.49414063 0.26367188-2.54882813 0.26367187-3.8671875v-204.08203124c0-29.09179689 20.7421875-49.74609375 49.921875-49.74609376h207.86132813v-515.91796875z"  horiz-adv-x="1024" />

    
    <glyph glyph-name="zhongzhi" unicode="&#58921;" d="M949.6 402.5c-2.3 53.5-14.8 106.2-37 155-22.9 50.5-55.6 95.8-96.4 133.3-80.1 74.5-186.8 113.6-296 108.6-109.3-5-212-53.5-285.3-134.8-30.7-33.8-55.5-72.4-73.6-114.3-1.9-4.4-6.7-6.8-11.4-5.7l-63.8 15.5c-7.4 1.8-13.9-5.1-11.8-12.4l32-108.7 31.9-108.5c2.1-7.3 11.4-9.5 16.7-4l77 82.1 77.2 82.3c5.2 5.5 2.5 14.6-4.9 16.3l-55.4 13.4c-6.1 1.5-9.3 8.3-6.5 13.9 13.6 27.4 31 52.8 51.6 75.5 59 65.4 141.8 104.5 229.8 108.4 88 4 174-27.5 238.6-87.3 134.9-124.7 144.2-337 20.8-473.3-59.1-65.3-141.8-104.3-229.9-108.2-88-4-174 27.5-238.7 87.3-7 7.2-16.6 11.6-27.1 11.6-21.5 0-39-18.4-39-41.1 0-11.8 4.7-22.5 12.3-30 80.1-74.5 186.9-113.7 296.2-108.7 53 2.3 105.1 15 153.3 37.3 50.1 23.2 95 56.3 132 97.3 37.3 41.1 66 89.2 84.3 141.5 17.6 50.6 25.5 104.1 23.1 157.7z"  horiz-adv-x="1024" />

    
    <glyph glyph-name="baocun" unicode="&#58893;" d="M579.7 604.6c18.8 0 34.1 15.3 34.1 34.1v34.1c0 18.8-15.4 34.1-34.1 34.1-18.8 0-34.1-15.3-34.1-34.1v-34.1c0-18.7 15.4-34.1 34.1-34.1zM944.7 679.7L808.2 816.1c-6.8 6.8-15.3 10.2-23.9 10.2H170.4c-56.3 0-102.3-46-102.3-102.3v-682.1c0-56.3 46-102.3 102.3-102.3h682.1c56.3 0 102.3 46 102.3 102.3V655.8c0.1 8.5-3.3 17-10.1 23.9zM358 758.1h307v-182.5c0-11.9-10.2-22.2-22.2-22.2H380.2c-11.9 0-22.2 10.2-22.2 22.2V758.1z m358.1-750.3H306.9V243.1c0 20.5 17.1 37.5 37.5 37.5h334.2c20.5 0 37.5-17 37.5-37.5v-235.3z m170.6 34.1c0-18.8-15.3-34.1-34.1-34.1h-66.5V243.1c0 58-47.7 105.7-105.7 105.7h-336c-58 0-105.7-47.7-105.7-105.7v-235.3h-68.2c-18.8 0-34.1 15.3-34.1 34.1V724c0 18.8 15.3 34.1 34.1 34.1h119.4v-182.5c0-49.5 40.9-90.4 90.4-90.4h262.6c49.5 0 90.4 40.9 90.4 90.4V758.1h37.5l116-116v-600.2z"  horiz-adv-x="1024" />

    
    <glyph glyph-name="xinzeng" unicode="&#59337;" d="M886.99415381 459.00134883l-299.99100674 0L587.00314795 759.00764414c0 41.42189003-33.5848544 74.99235586-75.00674532 74.99235586s-74.99955058-33.56956582-74.99955058-74.99235586L436.99685205 459.00134883 136.99865058 459.00134883c-41.42189003 0-74.99955058-33.56956582-74.99955058-74.99955058 0-41.42189003 33.57765967-74.99235586 74.99955059-74.99235586l299.99820146 0 0-300.0053962c0-41.42189003 33.57765967-75.00674531 74.99955058-75.00674531s75.00674531 33.5848544 75.00674532 75.00674531L587.00314795 309.01034239l299.99100674-1e-8c41.42189003 0 75.00674531 33.56956582 75.00674531 74.99235586C962.00089912 425.431783 928.41604473 459.00134883 886.99415381 459.00134883z"  horiz-adv-x="1024" />

    
    <glyph glyph-name="fabu" unicode="&#58963;" d="M807.04 109.22666666999999L454.72 216.32000000000005 769.06666667 581.76l-405.76-339.2-329.28 98.13333333L988.48 795.73333333 807.04 109.22666666999999zM443.62666667-26.559999999999945V162.34666667l115.94666666-32.85333334-115.94666666-156.05333333z m0 0"  horiz-adv-x="1024" />

    
    <glyph glyph-name="yulan" unicode="&#58880;" d="M741.939 387.567c0-128.953-104.555-233.492-233.508-233.492s-233.49 104.54-233.49 233.492S379.478 621.06 508.433 621.06s233.506-104.538 233.506-233.492z m-233.476 66.715c0.017 36.841-29.853 66.73-66.714 66.745-36.843 0-66.73-29.871-66.747-66.713 0-36.86 29.871-66.747 66.714-66.747 36.862 0 66.747 29.855 66.747 66.715zM995.713 296.6C851.603 123.586 690.2 35.756 512.743 35.756c-177.458 0-338.878 87.83-482.971 260.846-36.68 44.046-35.946 108.196 1.698 151.41C189.28 629.109 349.738 721.138 512.742 721.138c163.006 0 323.445-92.029 481.273-273.127 37.643-43.214 38.362-107.362 1.698-151.41z m-52 107.577C797.467 572 653.816 654.424 512.744 654.424s-284.69-82.425-430.972-250.28c-16.135-18.502-16.445-46.005-0.717-64.868 132.203-158.774 275.69-236.839 431.688-236.839 156 0 299.488 78.065 431.69 236.84 15.727 18.862 15.417 46.363-0.718 64.9z"  horiz-adv-x="1024" />

    
    <glyph glyph-name="shanchu" unicode="&#58886;" d="M764.421875 65.484375c0-30.234375-24.609375-54.84375-54.815625-54.84375H314.421875a54.928125 54.928125 0 0 0-54.84375 54.84375V647.671875h504.84375v-582.1875zM369.265625 746.109375c0 6.328125 4.921875 11.25 11.25 11.25h263.671875c6.328125 0 11.221875-4.921875 11.221875-11.25v-33.046875H369.265625V746.109375z m559.6875-33.046875H720.828125V746.109375c0 42.1875-34.453125 76.640625-76.640625 76.640625h-263.671875a76.809375 76.809375 0 0 1-76.640625-76.640625v-33.046875H95.046875C76.765625 713.0625 62 698.296875 62 680.015625s14.765625-33.046875 33.046875-33.046875h98.4375v-581.484375A120.9375 120.9375 0 0 1 314.421875-55.453125h395.15625a120.9375 120.9375 0 0 1 120.9375 120.9375V647.671875h98.4375c18.28125 0 33.046875 14.765625 33.046875 33.046875s-14.765625 32.34375-33.046875 32.34375zM512 109.78125c18.28125 0 33.046875 14.765625 33.046875 33.046875v351.5625c0 18.28125-14.7375 33.046875-33.046875 33.046875-18.28125 0-33.046875-14.765625-33.046875-33.046875v-351.5625c0-18.28125 14.765625-33.046875 33.046875-33.046875m-153.984375 0c18.28125 0 33.046875 14.765625 33.046875 33.046875v351.5625c0 18.28125-14.765625 33.046875-33.046875 33.046875s-33.046875-14.765625-33.046875-33.046875v-351.5625c0.703125-18.28125 15.46875-33.046875 33.046875-33.046875m307.96875 0c18.28125 0 33.075 14.765625 33.075 33.046875v351.5625c0 18.28125-14.765625 33.046875-33.075 33.046875-18.253125 0-33.046875-14.765625-33.046875-33.046875v-351.5625c0-18.28125 14.765625-33.046875 33.046875-33.046875"  horiz-adv-x="1024" />

    
    <glyph glyph-name="bianji" unicode="&#58912;" d="M348.312 228.972c18.082-18.081 46.632-18.081 63.762 0L909.8 726.697c18.082 18.082 18.082 46.632 0 64.714s-46.632 18.082-63.762 0L348.312 293.686c-18.082-18.082-18.082-46.632 0-64.714zM899.33 452.616c-24.743 0-45.68-19.986-45.68-45.68v-364.491h-683.3v683.3h364.49c24.744 0 44.729 19.986 45.68 45.681 0 24.744-19.985 45.68-44.728 45.68H124.669c-24.743 0-45.68-19.985-45.68-45.68v-774.662c0-12.371 4.758-23.792 13.323-32.357 8.565-8.565 19.985-13.323 32.357-13.323h774.662c12.372 0 23.792 4.758 32.357 13.323 8.565 8.565 13.323 19.986 13.323 32.357V406.935c0 25.695-20.937 45.68-45.68 45.68z"  horiz-adv-x="1024" />

    


  </font>
</defs>
</svg>
